<svg width="18" height="13" viewBox="0 0 18 13" fill="none" xmlns="http://www.w3.org/2000/svg">
<path d="M17.7364 1.67391L6.73641 12.6739C6.67256 12.7378 6.59673 12.7885 6.51327 12.8231C6.42981 12.8577 6.34035 12.8755 6.25 12.8755C6.15965 12.8755 6.07019 12.8577 5.98673 12.8231C5.90327 12.7885 5.82745 12.7378 5.76359 12.6739L0.951095 7.86141C0.822092 7.7324 0.749619 7.55744 0.749619 7.375C0.749619 7.19256 0.822092 7.0176 0.951095 6.88859C1.0801 6.75959 1.25506 6.68712 1.4375 6.68712C1.61994 6.68712 1.7949 6.75959 1.92391 6.88859L6.25 11.2155L16.7636 0.701094C16.8926 0.572091 17.0676 0.499619 17.25 0.499619C17.4324 0.499619 17.6074 0.572091 17.7364 0.701094C17.8654 0.830097 17.9379 1.00506 17.9379 1.1875C17.9379 1.36994 17.8654 1.5449 17.7364 1.67391Z" fill="#9E78CF"/>
</svg>
