<svg width="12.252670" height="13.127861" viewBox="0 0 12.2527 13.1279" fill="none" xmlns="http://www.w3.org/2000/svg" xmlns:xlink="http://www.w3.org/1999/xlink">
	<desc>
			Created with Pixso.
	</desc>
	<defs/>
	<path id="Vector" d="M0.25 0.27C0.33 0.18 0.43 0.11 0.54 0.07C0.64 0.02 0.76 0 0.87 0C0.99 0 1.1 0.02 1.21 0.07C1.31 0.11 1.41 0.18 1.49 0.27L6.12 5.23L10.75 0.27C10.83 0.18 10.93 0.11 11.04 0.07C11.14 0.02 11.26 0 11.37 0C11.49 0 11.6 0.02 11.71 0.07C11.81 0.11 11.91 0.18 11.99 0.27C12.07 0.36 12.14 0.46 12.18 0.57C12.23 0.69 12.25 0.81 12.25 0.93C12.25 1.06 12.23 1.18 12.18 1.29C12.14 1.41 12.07 1.51 11.99 1.6L7.36 6.56L11.99 11.52C12.07 11.61 12.14 11.71 12.18 11.83C12.23 11.94 12.25 12.06 12.25 12.18C12.25 12.31 12.23 12.43 12.18 12.54C12.14 12.66 12.07 12.76 11.99 12.85C11.91 12.94 11.81 13 11.71 13.05C11.6 13.1 11.49 13.12 11.37 13.12C11.26 13.12 11.14 13.1 11.04 13.05C10.93 13 10.83 12.94 10.75 12.85L6.12 7.88L1.49 12.85C1.41 12.94 1.31 13 1.21 13.05C1.1 13.1 0.99 13.12 0.87 13.12C0.76 13.12 0.64 13.1 0.54 13.05C0.43 13 0.33 12.94 0.25 12.85C0.17 12.76 0.11 12.66 0.06 12.54C0.02 12.43 0 12.31 0 12.18C0 12.06 0.02 11.94 0.06 11.83C0.11 11.71 0.17 11.61 0.25 11.52L4.88 6.56L0.25 1.6C0.17 1.51 0.11 1.41 0.06 1.29C0.02 1.18 0 1.06 0 0.93C0 0.81 0.02 0.69 0.06 0.57C0.11 0.46 0.17 0.36 0.25 0.27Z" fill="#9E78CF" fill-opacity="1.000000" fill-rule="nonzero"/>
</svg>
